# xmcd
#
# Track frame offsets:
#	150
#	16981
#	33219
#	50193
#	71664
#	90596
#	104206
#	117872
#	131675
#	147082
#	163923
#	182641
#	206663
#	223956
#
# Disc length: 3196 seconds
#
# Revision: 1
# Processed by: cddbd v1.5.2PL0 Copyright (c) Steve Scherf et al.
# Submitted via: audiograbber 1.83.01
#
DISCID=d80c7a0e
DTITLE=Wolf Schubert-K. - The Next Few Miles
DYEAR=2012
DGENRE=Blues
TTITLE0=Lost
TTITLE1=Rain
TTITLE2=Who will catch you
TTITLE3=Too blind to see
TTITLE4=Tha ballad of Rusty and Sin
TTITLE5=Kiss like Jimmi
TTITLE6=See the sun
TTITLE7=Commin home
TTITLE8=Darkeyed angel
TTITLE9=Now ain't the right time
TTITLE10=Steady company
TTITLE11=Sweet pain
TTITLE12=On my knees
TTITLE13=Man of constant sorrow
EXTD=
EXTT0=
EXTT1=
EXTT2=
EXTT3=
EXTT4=
EXTT5=
EXTT6=
EXTT7=
EXTT8=
EXTT9=
EXTT10=
EXTT11=
EXTT12=
EXTT13=
PLAYORDER=
